<svg xmlns="http://www.w3.org/2000/svg" viewBox="0 0 969 856" width="242" height="214"><!-- carrot · 연아 그림 --><g transform="translate(0.000000,856.000000) scale(0.100000,-0.100000)"
fill="#ff9a3c" stroke="none">
<path d="M5060 8520 c-11 -21 -20 -47 -20 -57 0 -10 -44 -110 -98 -223 -107
-221 -129 -277 -142 -356 -14 -91 -42 -114 -140 -114 -61 0 -216 75 -281 135
-25 23 -61 51 -80 60 -19 10 -63 45 -99 80 -36 34 -81 70 -100 80 -19 10 -56
37 -82 62 -71 66 -236 143 -306 143 -152 0 -197 -116 -112 -291 22 -46 40 -91
40 -100 0 -10 18 -55 40 -100 22 -46 40 -91 40 -101 0 -9 45 -108 100 -218 55
-111 100 -210 100 -220 0 -11 43 -105 95 -210 110 -221 111 -236 26 -272 -109
-45 -208 -95 -247 -125 -23 -17 -57 -39 -76 -49 -18 -9 -100 -83 -183 -165
-150 -148 -150 -148 -261 -376 -107 -219 -134 -283 -155 -366 -5 -21 -25 -69
-44 -107 -35 -70 -35 -70 -35 -489 0 -396 1 -421 20 -462 17 -38 20 -66 20
-220 0 -155 3 -182 20 -220 12 -27 20 -66 20 -100 0 -35 8 -74 20 -100 12 -27
20 -66 20 -100 0 -35 8 -74 20 -100 62 -137 1 -280 -103 -243 -66 23 -98 17
-206 -38 l-102 -51 -112 58 c-62 32 -128 71 -148 87 -23 19 -55 32 -92 38 -77
12 -93 23 -122 80 -39 76 -133 120 -261 120 -70 0 -106 5 -144 20 -102 40
-238 -7 -284 -99 -14 -26 -32 -53 -41 -61 -35 -29 -85 -147 -85 -200 0 -104
-36 -140 -142 -140 -100 0 -157 55 -158 153 0 63 -59 167 -111 196 -24 13 -57
36 -74 49 -54 45 -145 82 -202 82 -29 0 -75 9 -103 20 -28 11 -62 20 -77 20
-42 0 -185 -51 -223 -80 -19 -15 -49 -34 -66 -43 -114 -59 -164 -158 -164
-326 0 -97 4 -127 20 -162 11 -24 20 -61 20 -82 0 -85 94 -218 201 -284 73
-45 141 -90 184 -121 22 -16 54 -37 71 -45 36 -18 99 -86 109 -116 4 -15 42
-39 118 -78 85 -42 129 -72 183 -123 80 -76 113 -89 168 -66 64 27 53 127 -18
163 -17 8 -60 44 -96 78 -36 34 -83 71 -105 82 -96 49 -122 165 -43 188 12 4
39 19 58 34 19 15 55 39 80 53 71 41 135 116 153 179 46 157 183 161 262 9 24
-46 123 -148 183 -190 19 -13 42 -42 52 -66 32 -74 114 -86 188 -27 20 17 53
38 72 48 49 25 248 222 272 270 11 22 33 54 48 72 16 17 36 57 45 88 26 90 84
104 168 41 18 -13 100 -58 182 -101 170 -86 221 -118 306 -192 81 -69 135 -78
174 -27 19 24 59 33 91 19 27 -11 95 -148 94 -190 0 -5 9 -32 19 -60 11 -27
22 -62 25 -76 3 -14 19 -42 35 -63 16 -20 33 -51 37 -69 9 -43 148 -319 169
-337 9 -8 45 -70 80 -139 39 -78 77 -140 100 -161 20 -19 47 -55 60 -80 13
-25 40 -61 60 -80 20 -19 45 -52 56 -72 10 -20 28 -40 41 -43 30 -10 230 -201
245 -234 9 -23 8 -35 -8 -70 -22 -50 -26 -43 76 -149 38 -41 90 -85 115 -100
25 -14 74 -53 110 -87 36 -34 81 -70 100 -80 19 -10 48 -29 64 -42 16 -13 61
-40 100 -60 39 -20 84 -47 100 -60 16 -13 61 -40 100 -60 39 -19 89 -52 111
-73 22 -21 61 -51 86 -67 123 -76 145 -91 195 -135 59 -52 274 -165 364 -191
120 -35 135 -71 79 -187 -72 -150 -65 -160 109 -160 148 0 148 0 159 38 6 20
17 52 24 69 11 28 11 39 -3 76 -38 102 7 127 229 127 155 0 155 0 296 47 86
28 157 58 180 75 81 63 181 101 220 84 49 -20 60 -46 68 -156 6 -87 18 -137
55 -226 31 -76 214 -129 301 -88 36 18 83 93 83 134 0 43 -87 194 -145 250
-31 30 -67 76 -80 101 -19 36 -36 52 -83 77 -84 45 -91 69 -48 159 18 37 41
75 50 82 10 8 46 72 81 141 35 69 71 132 80 140 21 18 85 144 85 167 0 10 44
110 98 223 110 227 130 279 142 360 4 31 15 70 24 87 9 18 16 48 16 68 0 20 8
57 18 83 43 110 55 151 61 222 4 41 15 89 24 107 12 22 17 56 17 108 0 50 6
92 18 123 49 123 55 151 61 262 5 80 12 125 24 147 9 18 17 49 17 70 0 21 9
58 20 82 14 30 20 65 20 117 0 97 17 138 64 154 20 6 40 9 46 5 25 -15 75 10
139 71 82 77 109 89 155 70 51 -21 64 -70 37 -132 -32 -72 -30 -215 4 -281 30
-57 25 -82 -25 -140 -16 -18 -32 -46 -35 -61 -3 -15 -15 -50 -26 -77 -36 -94
-19 -168 45 -199 46 -22 166 -22 213 0 50 24 103 132 103 209 0 31 8 77 18
103 28 70 52 142 63 185 5 21 25 69 44 107 31 61 35 79 35 147 0 56 6 90 20
122 17 36 20 65 20 180 0 114 4 143 20 180 16 33 20 65 20 139 0 91 2 102 38
182 52 114 72 174 82 240 4 31 15 70 24 87 9 19 16 56 16 90 0 46 8 76 38 143
62 135 74 179 81 280 4 52 12 105 19 117 33 60 -12 149 -96 186 -66 30 -292
40 -346 16 -40 -18 -62 -81 -48 -135 7 -24 12 -56 12 -71 0 -15 7 -47 16 -70
16 -40 16 -46 0 -86 -9 -25 -16 -73 -16 -117 0 -53 -6 -88 -20 -119 -15 -33
-20 -65 -20 -140 0 -74 -5 -106 -20 -140 -11 -24 -20 -59 -20 -78 0 -19 -8
-55 -18 -81 -23 -57 -48 -132 -66 -192 -8 -25 -19 -61 -26 -80 -7 -19 -20 -57
-30 -85 -10 -27 -23 -69 -29 -93 -19 -67 -63 -82 -136 -47 -76 35 -108 32
-213 -21 -88 -44 -91 -45 -125 -31 -51 22 -57 51 -57 272 0 171 -2 198 -20
236 -17 38 -20 66 -20 200 0 135 -3 163 -20 200 -16 36 -20 66 -20 160 0 95
-4 125 -20 160 -11 24 -20 60 -20 80 0 20 -9 56 -20 80 -14 31 -20 66 -20 120
0 55 -6 89 -20 120 -11 24 -20 61 -20 82 0 21 -8 52 -17 70 -9 18 -20 66 -24
107 -6 70 -22 128 -57 210 -8 19 -18 60 -22 90 -17 121 -184 481 -261 565 -26
27 -56 68 -67 90 -11 22 -105 123 -209 226 -188 187 -188 187 -351 268 -264
132 -298 141 -545 141 -149 0 -215 -4 -244 -14 -111 -39 -149 53 -68 163 14
19 25 43 25 55 0 12 9 41 20 65 12 26 20 65 20 100 0 34 8 73 20 100 17 36 20
65 20 181 0 116 -3 145 -20 181 -35 78 -20 152 36 175 71 30 199 19 294 -26
75 -35 94 -40 160 -40 66 0 85 -5 160 -40 47 -22 98 -40 113 -40 16 0 136 -36
267 -80 131 -44 250 -80 264 -80 15 0 43 -7 64 -16 45 -19 145 -37 192 -35
289 14 489 11 539 -8 43 -17 74 -21 181 -21 106 0 139 -4 180 -20 46 -18 74
-20 300 -20 226 0 254 2 300 20 40 16 74 20 160 20 86 0 120 4 160 20 29 11
74 20 105 20 55 0 55 0 55 50 0 58 -5 60 -80 30 -43 -17 -74 -20 -200 -20
-126 0 -157 -3 -200 -20 -28 -11 -64 -20 -80 -20 -16 0 -52 -9 -80 -20 -28
-11 -64 -20 -80 -20 -16 0 -52 9 -80 20 -28 11 -73 20 -100 20 -27 0 -72 9
-100 20 -44 18 -74 20 -240 20 -166 0 -196 2 -240 20 -46 18 -74 20 -300 20
-226 0 -254 2 -300 20 -28 11 -65 20 -83 20 -18 0 -70 18 -117 40 -63 30 -98
40 -135 40 -32 0 -91 14 -165 40 -63 22 -128 40 -145 40 -16 0 -68 18 -115 40
-47 22 -99 40 -117 40 -18 0 -55 9 -83 20 -28 11 -73 20 -100 20 -27 0 -72 9
-100 20 -28 11 -64 20 -80 20 -16 0 -52 9 -80 20 -29 11 -74 20 -106 20 -30 0
-71 7 -91 15 -30 13 -112 15 -524 15 -489 0 -489 0 -509 -40z"/>
</g><g transform="translate(0.000000,856.000000) scale(0.100000,-0.100000)"
fill="#e08835" stroke="none">
<path d="M5700 8461 c0 -77 -4 -108 -20 -142 -12 -27 -20 -66 -20 -100 0 -35
-8 -74 -20 -100 -11 -24 -20 -53 -20 -65 0 -12 -11 -36 -25 -55 -81 -111 -43
-202 69 -162 32 11 92 14 270 12 185 -1 230 1 237 12 19 30 11 293 -11 340
-36 79 -18 157 40 178 77 26 198 14 290 -29 75 -35 94 -40 160 -40 66 0 85 -5
160 -40 47 -22 98 -40 113 -40 16 0 136 -36 267 -80 131 -44 250 -80 264 -80
15 0 43 -7 64 -16 45 -19 145 -37 192 -35 289 14 489 11 539 -8 43 -17 74 -21
181 -21 106 0 139 -4 180 -20 46 -18 74 -20 300 -20 226 0 254 2 300 20 40 16
74 20 160 20 86 0 120 4 160 20 29 11 74 20 105 20 55 0 55 0 55 50 0 58 -5
60 -80 30 -43 -17 -74 -20 -200 -20 -126 0 -157 -3 -200 -20 -28 -11 -64 -20
-80 -20 -16 0 -52 -9 -80 -20 -28 -11 -64 -20 -80 -20 -16 0 -52 9 -80 20 -28
11 -73 20 -100 20 -27 0 -72 9 -100 20 -44 18 -74 20 -240 20 -166 0 -196 2
-240 20 -46 18 -74 20 -300 20 -226 0 -254 2 -300 20 -28 11 -65 20 -83 20
-18 0 -70 18 -117 40 -63 30 -98 40 -135 40 -32 0 -91 14 -165 40 -63 22 -128
40 -145 40 -16 0 -68 18 -115 40 -47 22 -99 40 -117 40 -18 0 -55 9 -83 20
-28 11 -73 20 -100 20 -27 0 -72 9 -100 20 -28 11 -64 20 -80 20 -16 0 -52 9
-80 20 -29 11 -74 20 -106 20 -30 0 -71 7 -91 15 -27 11 -78 15 -214 15 l-179
0 0 -99z"/>
<path d="M7075 7129 c81 -88 247 -444 265 -569 4 -30 14 -71 22 -90 35 -82 51
-140 57 -210 4 -41 15 -89 24 -107 9 -18 17 -49 17 -70 0 -21 9 -58 20 -82 14
-31 20 -65 20 -120 0 -54 6 -89 20 -120 11 -24 20 -60 20 -80 0 -20 9 -56 20
-80 16 -35 20 -65 20 -160 0 -94 4 -124 20 -160 17 -37 20 -65 20 -200 0 -134
3 -162 20 -200 18 -38 20 -65 20 -237 0 -293 21 -321 183 -239 100 50 142 56
197 26 66 -35 82 -36 70 -6 -5 14 -10 95 -10 180 0 131 -3 159 -20 196 -16 36
-20 66 -20 160 0 95 -4 125 -20 160 -11 24 -20 60 -20 80 0 20 -9 56 -20 80
-14 31 -20 66 -20 120 0 55 -6 89 -20 120 -11 24 -20 61 -20 82 0 21 -8 52
-17 70 -9 18 -20 66 -24 107 -6 70 -22 128 -57 210 -8 19 -18 60 -22 90 -17
121 -184 481 -261 565 -26 27 -56 68 -67 90 -25 49 -383 406 -432 430 -35 18
-35 17 15 -36z"/>
<path d="M8954 5478 c-38 -18 -60 -82 -46 -134 7 -24 12 -56 12 -71 0 -15 7
-47 16 -70 16 -40 16 -46 0 -86 -9 -25 -16 -73 -16 -117 0 -53 -6 -88 -20
-119 -15 -33 -20 -65 -20 -140 0 -74 -5 -106 -20 -140 -11 -24 -20 -59 -20
-78 0 -19 -8 -55 -18 -81 -23 -57 -48 -132 -66 -192 -8 -25 -19 -61 -26 -80
-7 -19 -20 -57 -30 -85 -10 -27 -23 -69 -29 -93 -14 -50 -61 -79 -102 -63 -21
7 -26 1 -66 -83 -24 -50 -43 -99 -43 -109 0 -10 -6 -30 -14 -45 -27 -54 -31
-79 -10 -60 90 80 193 2 145 -108 -32 -72 -30 -215 4 -281 30 -57 25 -82 -25
-140 -16 -18 -32 -46 -35 -61 -3 -15 -15 -50 -26 -77 -36 -94 -19 -168 45
-199 46 -22 166 -22 213 0 50 24 103 132 103 209 0 31 8 77 18 103 28 70 52
142 63 185 5 21 25 69 44 107 31 61 35 79 35 147 0 56 6 90 20 122 17 36 20
65 20 180 0 114 4 143 20 180 16 33 20 65 20 139 0 91 2 102 38 182 52 114 72
174 82 240 4 31 15 70 24 87 9 19 16 56 16 90 0 46 8 76 38 143 62 135 74 179
81 280 4 52 12 105 19 117 33 60 -12 149 -96 186 -65 29 -299 39 -348 15z"/>
<path d="M8001 4139 c-13 -5 -55 -38 -92 -73 -64 -61 -114 -86 -139 -71 -6 4
-26 1 -46 -5 -47 -16 -64 -57 -64 -154 0 -52 -6 -87 -20 -117 -11 -24 -20 -61
-20 -82 0 -21 -8 -52 -17 -70 -12 -22 -19 -67 -24 -147 -6 -111 -12 -139 -61
-262 -12 -31 -18 -73 -18 -123 0 -52 -5 -86 -17 -108 -9 -18 -20 -66 -24 -107
-6 -71 -18 -112 -61 -222 -10 -26 -18 -63 -18 -83 0 -20 -7 -50 -16 -68 -9
-17 -20 -56 -24 -87 -12 -81 -32 -133 -142 -360 -54 -113 -98 -213 -98 -223 0
-23 -64 -149 -85 -167 -9 -8 -45 -71 -80 -140 -35 -69 -71 -133 -81 -141 -9
-7 -32 -45 -50 -82 -43 -90 -36 -114 48 -159 47 -25 64 -41 83 -77 13 -25 49
-71 80 -101 58 -56 145 -207 145 -250 0 -28 -37 -101 -64 -123 -11 -10 -16
-16 -9 -13 19 10 80 -20 94 -46 7 -12 16 -66 20 -118 6 -87 18 -137 55 -226
31 -76 214 -129 301 -88 36 18 83 93 83 134 0 43 -87 194 -145 250 -31 30 -67
76 -80 101 -19 36 -36 52 -83 77 -84 45 -91 69 -48 159 18 37 41 75 50 82 10
8 46 72 81 141 35 69 71 132 80 140 21 18 85 144 85 167 0 10 44 110 98 223
110 227 130 279 142 360 4 31 15 70 24 87 9 18 16 48 16 68 0 20 8 57 18 83
43 110 55 151 61 222 4 41 15 89 24 107 12 22 17 56 17 108 0 50 6 92 18 123
49 123 55 151 61 262 4 75 12 126 22 145 9 17 19 55 22 86 5 56 5 56 -34 73
-69 31 -87 104 -50 201 11 27 23 62 26 77 3 15 19 43 35 61 50 58 55 83 25
140 -34 66 -36 209 -4 281 27 62 14 111 -37 132 -18 8 -35 14 -36 13 -2 0 -14
-5 -27 -10z"/>
<path d="M1900 3853 c-5 -23 -23 -57 -39 -75 -15 -18 -38 -51 -49 -73 -24 -48
-223 -245 -272 -270 -19 -10 -52 -31 -72 -48 -65 -52 -164 -46 -182 11 -3 9
-19 23 -35 29 -18 6 -37 26 -49 49 -11 22 -46 64 -77 94 -31 30 -67 75 -80
100 -79 152 -216 148 -262 -9 -18 -63 -82 -138 -153 -179 -25 -14 -61 -38 -80
-53 -19 -15 -46 -30 -58 -34 -79 -23 -53 -139 43 -188 22 -11 69 -48 105 -82
36 -34 79 -70 96 -78 71 -36 82 -136 18 -163 -55 -23 -88 -10 -168 66 -54 51
-98 81 -182 123 -88 44 -114 62 -123 85 -7 16 -28 44 -47 63 -34 33 -34 33
-34 6 0 -75 101 -212 201 -274 73 -45 141 -90 184 -121 22 -16 54 -37 71 -45
36 -18 99 -86 109 -116 4 -15 42 -39 118 -78 85 -42 129 -72 183 -123 80 -76
113 -89 168 -66 64 27 53 127 -18 163 -17 8 -60 44 -96 78 -36 34 -83 71 -105
82 -96 49 -122 165 -43 188 12 4 39 19 58 34 19 15 55 39 80 53 71 41 135 116
153 179 46 157 183 161 262 9 24 -46 123 -148 183 -190 19 -13 42 -42 52 -66
32 -74 114 -86 188 -27 20 17 53 38 72 48 49 25 248 222 272 270 11 22 33 54
48 72 16 17 36 57 45 88 26 90 84 104 168 41 18 -13 100 -58 182 -100 139 -71
208 -113 278 -166 27 -22 27 -22 17 6 -6 15 -22 40 -35 56 -14 16 -27 42 -31
56 -3 15 -14 50 -25 77 -10 28 -19 56 -19 62 0 7 -12 41 -26 76 -26 63 -26 63
-74 39 -48 -24 -48 -24 -93 -4 -25 11 -58 23 -74 26 -15 4 -62 33 -103 66 -48
39 -87 62 -110 65 -82 12 -114 29 -135 68 -34 66 -182 134 -302 138 -92 4 -92
4 -103 -38z"/>
<path d="M4311 1433 c-13 -29 -13 -30 84 -131 38 -41 90 -85 115 -100 25 -14
74 -53 110 -87 36 -34 81 -70 100 -80 19 -10 48 -29 64 -42 16 -13 61 -40 100
-60 39 -20 84 -47 100 -60 16 -13 61 -40 100 -60 39 -19 92 -55 117 -78 25
-24 60 -50 78 -60 18 -9 53 -32 78 -51 58 -44 55 -45 91 32 46 99 26 137 -88
171 -90 26 -305 139 -364 191 -50 44 -72 59 -195 135 -25 16 -64 46 -86 67
-22 21 -72 54 -111 73 -39 20 -84 47 -100 60 -16 13 -64 42 -106 64 -76 40
-76 40 -87 16z"/>
<path d="M6542 975 c-40 -19 -89 -47 -110 -63 -22 -17 -93 -47 -179 -75 -141
-47 -141 -47 -296 -47 -222 0 -267 -25 -229 -127 14 -37 14 -48 3 -76 -7 -17
-18 -49 -24 -69 -11 -38 -11 -38 -82 -39 l-70 0 105 -54 c58 -30 134 -63 170
-74 132 -41 146 -73 89 -191 -72 -150 -65 -160 109 -160 148 0 148 0 159 38 6
20 17 52 24 69 11 28 11 39 -3 76 -38 102 7 127 229 127 155 0 155 0 296 47
78 26 157 58 176 72 19 14 57 38 85 53 l51 27 -56 1 c-77 0 -194 57 -213 104
-37 89 -49 139 -55 226 -8 109 -19 136 -66 156 -42 17 -28 20 -113 -21z"/>
</g><g transform="translate(0.000000,856.000000) scale(0.100000,-0.100000)"
fill="#ffc28a" stroke="none">
<path d="M5300 8280 c-11 -21 -20 -47 -20 -57 0 -10 -44 -110 -98 -223 -107
-221 -129 -277 -142 -356 -14 -91 -42 -114 -140 -114 -61 0 -216 75 -281 135
-25 23 -61 51 -80 60 -19 10 -63 45 -99 80 -36 34 -81 70 -100 80 -19 10 -56
37 -82 62 -71 66 -236 143 -306 143 -152 0 -197 -116 -112 -291 22 -46 40 -91
40 -100 0 -10 18 -55 40 -100 22 -46 40 -91 40 -101 0 -9 45 -108 100 -218 55
-111 100 -210 100 -220 0 -11 43 -105 95 -210 110 -221 111 -236 26 -272 -109
-45 -208 -95 -247 -125 -23 -17 -57 -39 -76 -49 -18 -9 -100 -83 -183 -165
-150 -148 -150 -148 -261 -376 -107 -219 -134 -283 -155 -366 -5 -21 -25 -69
-44 -107 -35 -70 -35 -70 -35 -489 0 -396 1 -421 20 -462 17 -38 20 -66 20
-220 0 -155 3 -182 20 -220 12 -27 20 -66 20 -100 0 -35 8 -74 20 -100 12 -27
20 -66 20 -100 0 -35 8 -74 20 -100 62 -137 1 -280 -103 -243 -65 23 -98 17
-204 -36 -86 -44 -103 -50 -126 -41 -32 12 -33 6 -8 -34 30 -49 53 -68 124
-104 l67 -34 101 52 c108 54 140 60 206 37 104 -37 165 106 103 243 -12 26
-20 65 -20 100 0 34 -8 73 -20 100 -12 26 -20 65 -20 100 0 34 -8 73 -20 100
-17 38 -20 65 -20 220 0 154 -3 182 -20 220 -19 41 -20 66 -20 462 0 419 0
419 35 489 19 38 39 86 44 107 21 83 48 147 155 366 111 228 111 228 261 376
83 82 165 156 183 165 19 10 53 32 76 49 39 30 138 80 247 125 85 36 84 51
-26 272 -52 105 -95 199 -95 210 0 10 -45 109 -100 220 -55 110 -100 209 -100
218 0 10 -18 55 -40 101 -22 45 -40 90 -40 100 0 9 -18 54 -40 100 -85 175
-40 291 112 291 70 0 235 -77 306 -143 26 -25 63 -52 82 -62 19 -10 64 -46
100 -80 36 -35 80 -70 99 -80 19 -9 55 -37 80 -60 65 -60 220 -135 281 -135
98 0 126 23 140 114 13 79 35 135 142 356 54 113 98 213 98 223 0 10 9 36 20
57 20 40 20 40 110 40 90 0 90 0 90 54 0 30 4 66 10 80 10 26 10 26 -170 26
-180 0 -180 0 -200 -40z"/>
<path d="M6465 7103 c-72 -95 -25 -183 78 -147 29 10 95 14 244 14 209 0 303
-16 404 -70 24 -13 24 -11 -3 46 -27 54 -109 101 -267 154 -130 44 -424 46
-456 3z"/>
<path d="M722 3656 c-34 -12 -77 -33 -95 -47 -18 -14 -46 -33 -63 -42 -114
-59 -164 -158 -164 -327 0 -142 10 -170 73 -201 23 -12 52 -31 65 -42 22 -20
22 -20 22 90 0 111 0 111 -29 123 -89 36 -115 162 -39 185 12 4 39 19 58 34
19 16 50 36 69 46 39 20 127 100 143 128 9 18 29 79 25 76 -1 -1 -30 -11 -65
-23z"/>
<path d="M1060 3642 c0 -4 28 -35 63 -70 l62 -61 -3 48 c-4 48 -5 50 -52 70
-52 22 -70 26 -70 13z"/>
<path d="M3658 2733 c-23 -6 -23 -35 1 -98 11 -27 22 -62 25 -76 3 -14 19 -42
35 -63 16 -20 33 -51 37 -69 9 -43 148 -319 169 -337 9 -8 45 -70 80 -139 39
-78 77 -140 100 -161 20 -19 47 -55 60 -80 13 -25 54 -75 91 -110 38 -36 75
-74 82 -85 7 -11 1 3 -12 30 -13 28 -41 66 -61 85 -23 21 -61 83 -100 161 -35
69 -71 131 -80 139 -21 18 -160 294 -169 337 -4 18 -21 49 -37 69 -16 21 -32
49 -35 63 -3 14 -14 49 -25 76 -10 28 -19 57 -20 65 -3 88 -89 205 -141 193z"/>
</g><g transform="translate(0.000000,856.000000) scale(0.100000,-0.100000)"
fill="#6cc46a" stroke="none">
<path d="M5835 8244 c-57 -29 -357 -321 -375 -365 -39 -93 -140 -49 -140 61 0
41 -6 74 -20 100 -11 22 -20 49 -20 60 0 31 -24 70 -69 115 l-41 39 -41 -39
c-55 -54 -149 -239 -149 -295 0 -23 -9 -58 -20 -80 -11 -22 -20 -49 -20 -60 0
-11 -13 -47 -29 -79 -78 -154 -375 -148 -566 11 -16 14 -45 33 -64 43 -19 9
-55 36 -80 60 -25 23 -61 50 -80 60 -19 9 -55 36 -80 59 -95 87 -118 93 -167
45 -42 -41 -42 -43 -28 -70 7 -15 14 -37 14 -49 0 -11 9 -38 20 -60 11 -22 20
-48 20 -60 0 -11 18 -56 40 -100 22 -44 40 -89 40 -100 0 -11 18 -56 40 -100
22 -44 40 -91 40 -104 0 -14 13 -40 29 -58 36 -42 51 -71 51 -98 0 -35 40
-103 93 -157 71 -73 96 -73 258 7 67 33 130 60 141 60 10 0 33 8 51 17 18 9
66 20 107 24 83 7 133 23 260 81 47 21 93 38 102 38 9 0 35 9 59 20 40 18 67
20 299 20 306 0 292 -8 414 237 76 153 76 153 76 253 0 81 4 108 20 140 14 26
20 59 20 100 0 41 -6 74 -20 100 -11 22 -20 45 -20 53 0 18 -82 97 -100 97 -8
-1 -37 -12 -65 -26z"/>
</g><g transform="translate(0.000000,856.000000) scale(0.100000,-0.100000)"
fill="#5fac5d" stroke="none">
<path d="M5890 8263 c1 -5 7 -19 15 -33 22 -38 19 -143 -5 -190 -16 -32 -20
-59 -20 -140 0 -100 0 -100 -76 -253 -122 -245 -108 -237 -414 -237 -232 0
-259 -2 -299 -20 -24 -11 -50 -20 -59 -20 -9 0 -55 -17 -102 -38 -127 -58
-177 -74 -260 -81 -41 -4 -89 -15 -107 -24 -18 -9 -41 -17 -51 -17 -11 0 -74
-27 -141 -60 -78 -38 -135 -60 -157 -60 -45 0 -43 -6 19 -68 73 -72 97 -71
258 8 67 33 130 60 141 60 10 0 33 8 51 17 18 9 66 20 107 24 83 7 133 23 260
81 47 21 93 38 102 38 9 0 35 9 59 20 40 18 67 20 299 20 306 0 292 -8 414
237 76 153 76 153 76 253 0 81 4 108 20 140 14 26 20 59 20 100 0 41 -6 74
-20 100 -11 22 -20 45 -20 53 0 16 -81 97 -98 97 -7 0 -12 -3 -12 -7z"/>
<path d="M5160 8225 c0 -14 9 -43 20 -65 14 -26 20 -59 20 -100 0 -89 51 -135
106 -96 16 12 17 18 7 43 -20 49 -32 87 -38 116 -6 28 -89 127 -106 127 -5 0
-9 -11 -9 -25z"/>
</g><g transform="translate(0.000000,856.000000) scale(0.100000,-0.100000)"
fill="#a7dca6" stroke="none">
<path d="M5875 8174 c-41 -22 -342 -321 -355 -355 -11 -26 -46 -49 -78 -49
-14 -1 -13 -4 7 -20 38 -32 91 -18 111 30 13 31 330 350 348 350 7 0 12 14 12
30 0 34 -4 35 -45 14z"/>
<path d="M5163 8128 c-40 -44 -123 -225 -123 -268 0 -23 -9 -58 -20 -80 -11
-22 -20 -49 -20 -60 0 -11 -13 -47 -29 -79 -65 -128 -255 -153 -445 -58 -58
29 -98 44 -89 34 10 -10 66 -43 126 -73 193 -96 382 -72 448 57 16 32 29 68
29 79 0 11 9 38 20 60 11 22 20 58 20 80 0 31 15 72 60 159 61 119 66 136 52
159 -6 9 -14 7 -29 -10z"/>
<path d="M3933 7918 c-39 -41 -41 -44 -28 -68 8 -14 14 -35 15 -48 0 -12 9
-40 20 -62 11 -22 20 -48 20 -60 0 -11 18 -56 40 -100 22 -44 40 -89 40 -100
0 -11 18 -56 40 -100 22 -44 40 -91 40 -104 0 -14 11 -37 24 -53 24 -28 24
-28 17 12 -4 22 -24 73 -44 112 -21 40 -37 82 -37 93 0 11 -18 56 -40 100 -22
44 -40 89 -40 100 0 12 -9 38 -20 60 -11 22 -20 49 -20 60 0 12 -7 34 -14 49
-14 27 -14 29 28 70 43 42 43 42 82 19 29 -16 35 -18 26 -5 -11 12 -96 67
-106 67 -1 0 -20 -19 -43 -42z"/>
<path d="M4153 7822 c22 -25 107 -72 89 -49 -8 9 -35 28 -60 42 -34 19 -42 21
-29 7z"/>
<path d="M4313 7702 c22 -25 107 -72 89 -49 -8 9 -35 28 -60 42 -34 19 -42 21
-29 7z"/>
<path d="M4188 7163 c7 -12 12 -33 12 -47 0 -19 5 -26 20 -26 11 0 20 2 20 5
0 13 -30 63 -46 76 -16 13 -16 12 -6 -8z"/>
</g><g transform="translate(0.000000,856.000000) scale(0.100000,-0.100000)"
fill="#2b211c" stroke="none">
<path d="M5060 8520 c-11 -21 -20 -48 -20 -60 0 -11 -45 -110 -100 -220 -55
-110 -100 -209 -100 -220 0 -12 -9 -38 -20 -60 -11 -22 -20 -59 -20 -85 0
-117 -118 -141 -283 -59 -50 26 -113 66 -138 89 -25 24 -61 51 -80 60 -19 10
-63 45 -99 80 -36 34 -81 70 -100 80 -19 10 -56 37 -82 62 -71 66 -236 143
-306 143 -152 0 -198 -119 -112 -290 22 -44 40 -89 40 -100 0 -11 18 -56 40
-100 22 -44 40 -89 40 -100 0 -11 45 -110 100 -220 55 -110 100 -209 100 -220
0 -11 43 -106 95 -210 52 -104 95 -201 95 -214 0 -29 -42 -66 -75 -66 -28 0
-211 -89 -250 -122 -16 -14 -46 -33 -65 -43 -19 -10 -102 -83 -183 -164 -149
-146 -149 -146 -263 -373 -63 -125 -114 -237 -114 -248 0 -12 -9 -38 -20 -60
-11 -22 -20 -48 -20 -60 0 -11 -18 -56 -40 -100 -40 -80 -40 -80 -40 -500 0
-401 1 -423 20 -460 18 -35 20 -59 20 -220 0 -161 2 -185 20 -220 14 -26 20
-59 20 -100 0 -41 6 -74 20 -100 14 -26 20 -59 20 -100 0 -41 6 -74 20 -100
20 -39 30 -242 14 -284 -10 -25 -42 -19 -84 15 -73 59 -176 44 -282 -41 -45
-37 -71 -38 -111 -4 -16 14 -62 41 -101 61 -38 19 -87 49 -107 65 -28 22 -52
32 -97 37 -71 8 -85 19 -118 82 -38 76 -133 119 -264 119 -76 0 -108 4 -141
20 -94 42 -237 -8 -283 -99 -14 -26 -32 -53 -41 -61 -46 -38 -85 -146 -85
-234 0 -74 -3 -87 -19 -96 -21 -11 -189 -14 -216 -4 -25 10 -65 98 -65 144 0
66 -58 170 -111 199 -24 13 -57 36 -74 49 -56 47 -145 82 -206 82 -35 0 -73 8
-100 20 -56 25 -98 25 -157 1 -26 -11 -60 -22 -77 -26 -16 -3 -46 -19 -65 -34
-19 -15 -49 -35 -66 -44 -114 -59 -164 -158 -164 -327 0 -101 3 -127 20 -160
11 -22 20 -57 20 -80 0 -88 92 -220 201 -287 73 -45 141 -90 184 -121 22 -16
54 -37 71 -45 36 -18 99 -86 109 -116 4 -15 42 -39 118 -78 85 -42 129 -72
183 -123 80 -76 113 -89 168 -66 64 27 53 127 -18 163 -17 8 -60 43 -96 78
-36 34 -81 70 -100 80 -46 23 -140 115 -140 137 0 22 34 43 80 52 19 4 51 19
70 35 19 15 50 36 69 46 80 41 161 137 161 191 0 40 87 124 129 124 40 0 103
-56 136 -119 27 -52 129 -156 192 -195 32 -20 43 -33 43 -52 0 -76 111 -98
188 -37 20 16 53 38 72 48 52 27 248 223 275 276 13 25 31 51 40 59 27 22 45
66 45 109 0 78 82 99 156 40 22 -17 109 -67 194 -111 175 -90 226 -121 311
-194 81 -71 156 -81 174 -24 33 105 145 85 145 -27 0 -24 9 -61 20 -83 11 -22
20 -49 20 -60 0 -11 9 -38 20 -60 11 -22 20 -49 20 -60 0 -27 15 -56 51 -98
16 -18 29 -44 29 -57 0 -30 141 -315 165 -335 9 -8 45 -70 80 -139 39 -78 77
-140 100 -161 20 -19 47 -55 60 -80 13 -25 40 -61 60 -80 20 -19 45 -52 56
-72 10 -20 29 -40 41 -44 13 -4 63 -46 113 -94 49 -48 106 -95 125 -105 19
-10 48 -29 64 -42 38 -32 200 -113 225 -113 49 0 27 56 -34 87 -16 9 -68 52
-115 98 -47 45 -103 92 -125 103 -51 26 -217 195 -243 247 -11 22 -37 56 -57
75 -20 19 -47 55 -60 80 -13 25 -40 61 -60 80 -20 19 -56 73 -80 121 -24 47
-51 91 -60 99 -22 19 -75 124 -75 150 0 27 -16 56 -51 98 -16 18 -29 44 -29
58 0 13 -18 60 -40 104 -22 44 -40 89 -40 100 0 12 -9 38 -20 60 -11 22 -20
49 -20 60 0 11 -9 38 -20 60 -11 22 -20 49 -20 60 0 11 -9 38 -20 60 -11 22
-20 58 -20 80 0 22 -9 58 -20 80 -11 22 -20 49 -20 60 0 11 -9 38 -20 60 -15
30 -20 59 -20 120 0 61 -5 90 -20 120 -14 26 -20 59 -20 100 0 41 -6 74 -20
100 -11 22 -20 58 -20 80 0 22 -9 58 -20 80 -18 34 -20 59 -20 200 0 141 -2
166 -20 200 -19 36 -20 59 -20 320 0 261 -1 284 -20 320 -11 22 -20 49 -20 60
0 11 9 38 20 60 17 34 20 59 20 180 0 140 0 140 60 260 33 66 60 129 60 140 0
50 177 373 235 430 31 30 67 75 80 100 91 177 538 410 663 346 64 -33 94 -14
102 68 5 51 5 51 140 117 154 76 212 98 290 109 31 4 70 15 87 24 18 9 49 16
70 16 22 0 72 16 123 38 172 78 155 75 480 81 255 5 299 8 327 24 24 13 56 17
130 17 76 0 108 5 142 20 34 16 65 20 141 20 76 0 107 -4 141 -20 31 -14 66
-20 119 -20 48 0 92 -7 125 -19 81 -30 117 -42 169 -57 32 -9 65 -29 96 -58
26 -24 65 -53 86 -64 51 -27 296 -276 322 -327 11 -22 37 -56 57 -75 20 -19
46 -53 57 -75 11 -22 34 -55 49 -73 16 -18 29 -44 29 -58 0 -13 27 -78 60
-144 33 -66 60 -129 60 -140 0 -12 9 -38 20 -60 11 -22 20 -49 20 -60 0 -11 9
-38 20 -60 11 -22 20 -58 20 -80 0 -22 9 -58 20 -80 11 -22 20 -58 20 -80 0
-22 9 -58 20 -80 14 -26 20 -59 20 -100 0 -41 6 -74 20 -100 14 -26 20 -59 20
-100 0 -41 6 -74 20 -100 15 -30 20 -59 20 -120 0 -61 5 -90 20 -120 16 -32
20 -59 20 -140 0 -81 4 -108 20 -140 18 -36 20 -59 20 -280 0 -221 2 -244 20
-280 27 -53 27 -147 0 -201 -20 -37 -20 -53 -16 -252 3 -117 5 -228 6 -247 1
-91 -16 -237 -33 -267 -12 -23 -17 -55 -17 -113 0 -61 -5 -90 -20 -120 -14
-26 -20 -59 -20 -100 0 -41 -6 -74 -20 -100 -11 -22 -20 -59 -20 -82 0 -37
-29 -108 -45 -108 -2 0 -19 9 -37 20 -42 25 -91 25 -147 0 -26 -12 -65 -20
-100 -20 -34 0 -73 -8 -100 -20 -24 -11 -60 -20 -81 -20 -51 0 -85 -28 -77
-62 9 -33 74 -64 114 -53 15 4 71 10 123 14 89 6 102 10 195 58 119 62 144 50
95 -47 -14 -26 -20 -59 -20 -100 0 -140 -70 -194 -270 -209 -81 -6 -105 -12
-165 -43 -38 -19 -86 -38 -106 -42 -20 -4 -49 -18 -63 -33 -74 -73 21 -133
133 -83 24 11 51 20 60 20 9 0 54 18 100 40 166 80 270 46 211 -70 -11 -22
-20 -57 -20 -80 0 -31 -23 -86 -100 -240 -55 -110 -100 -211 -100 -225 0 -13
-13 -39 -29 -57 -16 -18 -47 -69 -69 -114 -22 -44 -48 -86 -57 -94 -9 -8 -45
-70 -80 -139 -104 -208 -289 -367 -530 -457 -76 -28 -734 -28 -810 0 -128 48
-311 143 -362 188 -29 26 -67 55 -85 64 -18 9 -54 36 -79 60 -26 23 -80 59
-120 80 -41 20 -87 48 -103 61 -16 13 -79 49 -140 80 -61 31 -124 67 -140 80
-16 13 -61 40 -100 60 -39 19 -89 52 -111 73 -22 21 -61 51 -86 67 -105 65
-143 90 -185 121 -62 45 -119 34 -81 -16 40 -54 158 -167 197 -190 25 -14 74
-53 110 -87 36 -34 81 -70 100 -80 19 -10 48 -29 64 -42 16 -13 61 -40 100
-60 39 -20 84 -47 100 -60 16 -13 61 -40 100 -60 39 -19 89 -52 111 -73 22
-21 61 -51 86 -67 25 -15 67 -41 93 -58 27 -16 73 -52 103 -78 55 -49 317
-187 354 -187 10 0 38 -9 61 -19 24 -11 51 -22 61 -25 27 -8 21 -39 -28 -136
-80 -160 -74 -170 105 -170 144 0 150 1 150 20 0 12 9 38 20 60 25 49 25 71 0
120 -51 100 -32 110 210 110 162 0 198 3 238 18 72 28 143 52 187 63 22 6 56
23 76 38 45 37 192 111 219 111 37 0 70 -86 70 -180 0 -61 5 -90 20 -120 11
-22 20 -49 20 -60 0 -99 206 -186 317 -134 36 18 83 93 83 134 0 43 -87 194
-145 250 -31 30 -67 76 -80 101 -21 40 -35 52 -104 88 -89 46 -102 69 -60 107
12 10 32 40 44 65 13 25 31 51 40 59 9 8 45 71 80 140 35 69 71 132 80 140 22
18 85 144 85 170 0 11 45 110 100 220 55 110 100 209 100 220 0 12 9 38 20 60
11 22 20 58 20 80 0 22 9 58 20 80 11 22 20 58 20 80 0 22 9 58 20 80 11 22
20 49 20 60 0 11 9 38 20 60 14 26 20 59 20 100 0 41 6 74 20 100 15 30 20 59
20 120 0 61 5 90 20 120 11 22 20 49 20 60 0 11 9 38 20 60 16 32 20 59 20
140 0 81 4 108 20 140 11 22 20 58 20 80 0 22 9 58 20 80 17 32 20 59 20 154
0 157 4 164 85 130 56 -23 87 -11 175 72 74 69 83 74 124 74 76 0 100 -64 56
-150 -25 -49 -29 -224 -6 -255 22 -31 62 -7 76 47 7 24 20 62 31 86 10 23 19
52 19 63 0 11 9 37 20 59 11 22 20 58 20 80 0 22 9 58 20 80 15 30 20 59 20
120 0 61 5 90 20 120 14 26 20 59 20 100 0 41 6 74 20 100 11 22 20 49 20 60
0 11 9 38 20 60 11 22 20 49 20 60 0 11 9 38 20 60 11 22 20 49 20 60 0 11 9
38 20 60 11 22 20 49 20 60 0 11 9 38 20 60 17 33 20 59 20 160 0 101 3 127
20 160 14 26 20 59 20 100 0 41 6 74 20 100 13 25 20 59 20 94 0 91 34 117 79
60 31 -39 31 -294 1 -354 -11 -22 -20 -49 -20 -60 0 -11 -9 -38 -20 -60 -11
-22 -20 -49 -20 -60 0 -11 -9 -38 -20 -60 -13 -26 -20 -59 -20 -100 0 -51 -6
-73 -40 -140 -27 -54 -40 -93 -40 -120 0 -23 -9 -58 -20 -80 -11 -22 -20 -58
-20 -80 0 -22 -9 -58 -20 -80 -18 -35 -20 -59 -20 -220 0 -161 -2 -185 -20
-220 -14 -26 -20 -59 -20 -100 0 -41 -6 -74 -20 -100 -11 -22 -20 -49 -20 -60
0 -11 -9 -38 -20 -60 -11 -22 -20 -49 -20 -60 0 -75 -73 -145 -126 -121 -63
28 -154 -42 -154 -119 0 -11 -9 -38 -20 -60 -39 -77 -20 -164 44 -194 46 -22
166 -22 213 0 51 25 103 132 103 214 0 41 7 74 20 100 11 22 20 49 20 60 0 11
9 38 20 60 11 22 20 48 20 60 0 11 18 56 40 100 37 73 40 86 40 160 0 61 5 90
20 120 17 34 20 59 20 180 0 121 3 146 20 180 16 32 20 59 20 140 0 97 1 103
40 180 22 44 40 89 40 100 0 12 9 38 20 60 11 22 20 58 20 80 0 22 9 58 20 80
13 26 20 59 20 100 0 51 6 73 40 140 22 44 40 89 40 100 0 12 9 38 20 60 15
30 20 59 20 122 1 53 6 92 15 108 37 65 -6 154 -93 193 -66 30 -292 40 -346
16 -32 -15 -61 -79 -52 -116 4 -15 11 -53 15 -83 5 -30 14 -70 22 -87 11 -28
11 -38 0 -65 -8 -18 -17 -76 -20 -128 -4 -62 -12 -106 -24 -127 -13 -24 -17
-56 -17 -133 0 -81 -4 -108 -20 -140 -11 -22 -20 -58 -20 -80 0 -22 -9 -58
-20 -80 -11 -22 -20 -49 -20 -60 0 -11 -9 -38 -20 -60 -11 -22 -20 -49 -20
-60 0 -11 -9 -38 -20 -60 -11 -22 -20 -49 -20 -60 0 -11 -9 -38 -20 -60 -14
-27 -20 -59 -20 -102 0 -107 -39 -136 -100 -73 -72 75 -133 82 -239 29 -59
-29 -75 -43 -92 -77 -29 -57 -48 -77 -74 -77 -34 0 -35 9 -35 306 0 255 -1
278 -20 314 -18 34 -20 59 -20 200 0 141 -2 166 -20 200 -17 33 -20 59 -20
160 0 101 -3 127 -20 160 -11 22 -20 58 -20 80 0 22 -9 58 -20 80 -15 30 -20
59 -20 120 0 61 -5 90 -20 120 -11 22 -20 58 -20 80 0 22 -9 58 -20 80 -14 26
-20 59 -20 100 0 41 -6 74 -20 100 -11 22 -20 49 -20 60 0 11 -9 38 -20 60
-11 22 -20 58 -20 80 0 22 -9 58 -20 80 -11 22 -20 48 -20 60 0 38 -185 392
-225 430 -20 19 -47 55 -60 80 -14 28 -95 116 -212 232 -188 186 -188 186
-371 277 -101 50 -192 91 -202 91 -10 0 -37 9 -61 20 -40 18 -66 20 -259 20
-193 0 -219 -2 -259 -20 -24 -11 -51 -20 -61 -20 -56 0 -70 97 -21 152 36 42
51 71 51 98 0 11 9 38 20 60 14 26 20 59 20 100 0 41 6 74 20 100 17 34 20 59
20 180 0 121 -3 146 -20 180 -28 55 -28 165 -1 180 11 5 71 10 135 10 113 0
115 0 197 -40 75 -36 91 -40 160 -40 70 0 86 -4 160 -40 49 -24 98 -40 118
-40 20 0 58 -8 86 -19 75 -28 115 -42 165 -57 60 -18 135 -43 192 -66 26 -10
63 -18 83 -18 20 0 50 -7 68 -16 35 -19 133 -36 187 -34 339 13 495 10 541
-10 40 -17 69 -20 182 -20 113 0 142 -3 178 -20 40 -18 66 -20 299 -20 233 0
259 2 299 20 35 16 65 20 160 20 94 0 124 4 160 20 27 13 65 20 102 20 59 0
59 0 59 50 0 58 -9 61 -79 30 -37 -17 -65 -20 -200 -20 -134 0 -162 -3 -200
-20 -24 -11 -60 -20 -80 -20 -20 0 -56 -9 -80 -20 -24 -11 -60 -20 -81 -20
-21 0 -57 9 -81 20 -27 12 -66 20 -100 20 -35 0 -74 8 -100 20 -39 17 -66 20
-240 20 -174 0 -202 2 -240 20 -40 18 -67 20 -300 20 -234 0 -261 2 -300 20
-24 11 -61 20 -82 20 -23 0 -65 14 -110 37 -55 28 -90 38 -147 44 -71 6 -112
18 -222 61 -26 10 -62 18 -82 18 -20 0 -69 17 -117 40 -51 25 -97 40 -120 40
-20 0 -56 9 -80 20 -27 12 -66 20 -100 20 -35 0 -74 8 -100 20 -24 11 -60 20
-80 20 -20 0 -56 9 -80 20 -32 14 -66 20 -127 20 -64 0 -84 3 -88 15 -5 13
-70 15 -500 15 -494 0 -494 0 -514 -40z m511 -30 c34 -15 66 -20 136 -20 152
0 168 -27 51 -86 -55 -27 -98 -62 -174 -135 -55 -55 -108 -99 -117 -99 -25 0
-47 40 -47 87 0 31 -12 67 -40 123 -44 87 -48 111 -24 134 24 24 159 22 215
-4z m-347 -182 c9 -12 16 -42 16 -66 0 -23 9 -60 20 -82 11 -22 20 -49 20 -60
0 -11 9 -38 20 -60 14 -26 20 -59 20 -100 0 -64 27 -110 64 -110 28 0 66 23
72 44 4 12 77 92 163 179 159 162 235 217 296 217 35 0 85 -50 85 -85 0 -14 9
-43 20 -65 14 -26 20 -59 20 -100 0 -41 -6 -74 -20 -100 -16 -32 -20 -59 -20
-140 0 -100 0 -100 -90 -279 -49 -99 -99 -186 -112 -195 -19 -14 -62 -16 -283
-16 -237 0 -264 -2 -304 -20 -24 -11 -50 -20 -59 -20 -9 0 -55 -17 -102 -38
-127 -58 -177 -74 -260 -81 -41 -4 -89 -15 -107 -24 -18 -9 -41 -17 -51 -17
-11 0 -74 -27 -141 -60 -153 -75 -190 -79 -252 -23 -42 38 -99 137 -99 173 0
27 -16 56 -51 98 -16 18 -29 44 -29 58 0 13 -18 60 -40 104 -22 44 -40 89 -40
100 0 11 -18 56 -40 100 -22 44 -40 89 -40 100 0 12 -9 38 -20 60 -11 22 -20
48 -20 59 0 11 -18 57 -40 102 -58 120 -22 170 64 91 24 -22 59 -48 77 -57 19
-10 55 -37 80 -60 25 -24 61 -51 80 -60 19 -10 55 -37 80 -60 25 -24 61 -51
80 -60 19 -10 48 -29 64 -43 191 -159 488 -165 566 -11 16 32 29 68 29 79 0
11 9 38 20 60 11 22 20 57 20 80 0 36 144 350 182 398 16 19 45 14 62 -10z
m-4429 -4582 c134 -48 178 -77 212 -141 38 -71 42 -127 13 -185 -11 -22 -20
-49 -20 -60 0 -11 9 -38 20 -60 51 -100 24 -153 -111 -220 -130 -66 -238 -72
-305 -19 -22 17 -55 39 -74 49 -54 27 -150 133 -150 165 0 14 -9 43 -20 65
-16 32 -20 59 -20 145 0 106 0 106 58 167 110 115 246 147 397 94z m1176 4
c24 -11 64 -20 88 -20 54 0 141 -76 141 -124 0 -15 9 -44 20 -66 32 -63 26
-108 -29 -218 -106 -210 -247 -301 -347 -221 -22 17 -55 39 -74 49 -155 80
-199 293 -100 489 27 55 60 107 72 115 34 24 173 22 229 -4z m5480 -3449 c28
-29 35 -53 23 -85 -10 -25 -50 -19 -73 11 -62 78 -18 142 50 74z"/>
<path d="M6145 5354 c-132 -68 -147 -240 -29 -330 97 -74 224 12 224 153 0
147 -92 231 -195 177z"/>
<path d="M5105 5194 c-103 -53 -131 -141 -78 -248 41 -84 87 -95 161 -39 76
57 91 133 45 227 -36 73 -71 90 -128 60z"/>
<path d="M5907 4729 c-58 -48 -67 -74 -67 -194 0 -104 -1 -107 -29 -136 -54
-54 -77 -45 -210 85 -127 123 -161 141 -206 112 -52 -34 -38 -56 147 -243 174
-174 211 -203 267 -203 57 0 75 17 124 116 47 94 47 94 47 215 0 100 3 126 20
159 49 97 -12 156 -93 89z"/>
<path d="M4130 3591 c-103 -41 -149 -54 -221 -60 -129 -12 -208 -94 -147 -151
25 -23 54 -25 100 -6 39 15 114 41 178 60 25 8 61 19 80 26 19 7 54 19 77 27
85 29 116 76 71 107 -29 21 -82 20 -138 -3z"/>
<path d="M4281 3085 c-24 -14 -57 -36 -73 -50 -24 -21 -40 -25 -91 -25 -40 0
-78 -7 -106 -20 -24 -11 -59 -20 -77 -20 -115 0 -157 -100 -55 -131 33 -10 45
-8 86 10 30 13 69 21 104 21 34 0 73 8 100 20 24 11 51 20 60 20 63 0 181 86
181 132 0 65 -57 84 -129 43z"/>
</g></svg>
