<svg xmlns="http://www.w3.org/2000/svg" viewBox="0 0 465 596" width="116" height="149"><!-- cashew · 연아 그림 --><g transform="translate(0.000000,596.000000) scale(0.100000,-0.100000)"
fill="#f0d29a" stroke="none">
<path d="M1565 5776 c-200 -72 -377 -203 -440 -327 -13 -25 -31 -51 -40 -59
-26 -22 -45 -66 -45 -107 0 -21 -9 -58 -20 -82 -14 -31 -20 -65 -20 -120 0
-54 -6 -89 -20 -120 -30 -64 -30 -338 0 -402 11 -24 20 -60 20 -80 0 -20 9
-56 20 -80 12 -27 20 -66 20 -100 0 -35 8 -74 20 -100 15 -34 20 -66 20 -140
0 -75 5 -107 20 -140 30 -67 30 -611 0 -678 -11 -24 -20 -51 -20 -61 0 -10
-32 -81 -70 -159 -88 -178 -75 -171 -310 -171 -168 0 -171 0 -195 -25 -49 -48
-28 -92 63 -133 122 -54 118 -104 -18 -237 -64 -63 -91 -98 -125 -166 -24 -47
-51 -91 -60 -99 -9 -8 -27 -35 -40 -60 -13 -25 -31 -52 -40 -60 -9 -8 -27 -35
-40 -60 -13 -25 -31 -52 -40 -60 -41 -34 -45 -61 -45 -288 0 -198 2 -224 20
-263 11 -24 20 -60 20 -80 0 -20 9 -56 20 -80 11 -24 20 -61 20 -82 0 -40 56
-163 85 -187 9 -8 27 -35 40 -60 13 -25 31 -52 40 -60 9 -8 27 -35 40 -61 25
-49 66 -89 119 -116 17 -8 52 -35 77 -58 25 -24 61 -51 80 -60 19 -10 55 -37
80 -61 55 -51 176 -113 298 -154 84 -28 98 -30 254 -30 145 0 172 -3 221 -21
56 -22 56 -22 112 0 42 16 78 21 145 21 65 0 102 5 140 20 97 39 149 -4 149
-122 0 -109 73 -159 147 -102 69 53 91 129 59 205 -20 47 -1 91 45 109 19 7
57 24 86 37 79 37 110 20 159 -85 46 -103 68 -115 150 -83 31 11 71 21 90 21
70 0 86 33 82 161 -3 100 -5 112 -25 127 -32 25 -44 65 -31 102 9 27 30 41
162 107 83 41 169 88 191 105 43 31 110 76 184 121 96 59 127 101 227 299 68
136 94 198 94 225 0 21 9 58 20 82 11 24 20 60 20 80 0 23 15 69 40 120 23 48
40 97 40 117 0 20 8 56 18 82 43 110 55 151 61 222 4 41 15 89 24 107 11 20
17 55 17 96 0 125 40 169 126 140 80 -27 272 -15 318 21 98 74 100 162 4 215
-23 14 -60 38 -82 55 -36 29 -44 31 -125 32 -109 1 -129 8 -147 50 -23 54 -19
248 6 303 25 53 26 112 3 154 -13 24 -19 67 -24 167 -7 158 -11 170 -121 400
-43 91 -78 173 -78 183 0 23 -64 149 -85 167 -9 8 -45 71 -80 140 -35 69 -71
132 -80 140 -9 8 -27 34 -40 59 -13 26 -74 96 -140 161 -65 65 -127 135 -140
160 -26 51 -105 129 -156 155 -19 9 -99 81 -179 160 -120 118 -158 149 -220
180 -41 21 -88 49 -104 62 -53 45 -264 143 -416 193 -149 50 -149 50 -357 49
-208 -1 -208 -1 -298 -33z"/>
</g><g transform="translate(0.000000,596.000000) scale(0.100000,-0.100000)"
fill="#d3b988" stroke="none">
<path d="M3136 5149 c18 -19 41 -52 52 -75 11 -22 28 -47 37 -54 9 -8 45 -71
80 -140 35 -69 71 -132 80 -140 21 -18 85 -144 85 -167 0 -10 35 -92 78 -183
110 -230 114 -242 121 -400 5 -100 11 -143 24 -167 23 -42 22 -101 -3 -154
-25 -55 -29 -249 -6 -303 18 -42 38 -49 147 -50 81 -1 89 -3 125 -32 86 -69
98 -70 122 -11 26 63 28 117 5 160 -13 24 -19 67 -24 167 -7 158 -11 170 -121
400 -43 91 -78 173 -78 183 0 23 -64 149 -85 167 -9 8 -45 71 -80 140 -35 69
-71 132 -80 140 -9 8 -27 34 -40 59 -13 26 -74 96 -140 161 -65 65 -127 135
-140 160 -26 51 -105 129 -156 155 -34 17 -34 17 -3 -16z"/>
<path d="M4025 3007 c-39 -29 -239 -38 -309 -14 -86 29 -126 -15 -126 -140 0
-41 -6 -76 -17 -96 -9 -18 -20 -66 -24 -107 -6 -71 -18 -112 -61 -222 -10 -26
-18 -62 -18 -82 0 -20 -17 -69 -40 -117 -25 -51 -40 -97 -40 -120 0 -20 -9
-56 -20 -80 -11 -24 -20 -61 -20 -82 0 -27 -26 -89 -94 -225 -100 -198 -131
-240 -227 -299 -74 -45 -141 -90 -184 -121 -22 -17 -108 -64 -191 -105 -132
-66 -153 -80 -162 -107 -13 -37 -1 -77 31 -102 20 -15 22 -27 25 -127 4 -128
-12 -161 -82 -161 -19 0 -59 -10 -90 -21 -82 -32 -104 -20 -150 83 -49 105
-80 122 -159 85 -29 -13 -67 -30 -86 -37 -46 -18 -65 -62 -45 -109 32 -76 10
-152 -59 -205 -74 -57 -147 -7 -147 102 0 118 -52 161 -149 122 -38 -15 -75
-20 -140 -20 -67 0 -103 -5 -145 -21 -56 -22 -56 -22 -112 0 -49 18 -76 21
-221 21 -156 0 -170 2 -254 30 -124 41 -243 104 -300 157 -53 50 -64 46 -24
-8 14 -19 33 -47 42 -63 48 -77 62 -93 108 -123 28 -17 70 -49 95 -71 25 -22
63 -50 85 -63 22 -12 61 -42 86 -65 56 -51 177 -114 298 -154 84 -28 98 -30
254 -30 145 0 172 -3 221 -21 56 -22 56 -22 112 0 42 16 78 21 145 21 65 0
102 5 140 20 97 39 149 -4 149 -122 0 -109 73 -159 147 -102 69 53 91 129 59
205 -20 47 -1 91 45 109 19 7 57 24 86 37 79 37 110 20 159 -85 46 -103 68
-115 150 -83 31 11 71 21 90 21 70 0 86 33 82 161 -3 100 -5 112 -25 127 -32
25 -44 65 -31 102 9 27 30 41 162 107 83 41 169 88 191 105 43 31 110 76 184
121 96 59 127 101 227 299 68 136 94 198 94 225 0 21 9 58 20 82 11 24 20 60
20 80 0 23 15 69 40 120 23 48 40 97 40 117 0 20 8 56 18 82 43 110 55 151 61
222 4 41 15 89 24 107 11 20 17 55 17 96 0 125 40 169 126 140 80 -27 272 -15
318 21 98 74 100 162 4 215 -23 14 -60 38 -82 55 -36 29 -43 31 -130 32 -109
1 -130 10 -148 63 -13 40 -13 40 -43 18z"/>
</g><g transform="translate(0.000000,596.000000) scale(0.100000,-0.100000)"
fill="#f6e4c2" stroke="none">
<path d="M1755 5586 c-200 -72 -377 -203 -440 -327 -13 -25 -31 -51 -40 -59
-26 -22 -45 -66 -45 -107 0 -21 -9 -58 -20 -82 -14 -31 -20 -65 -20 -120 0
-54 -6 -89 -20 -120 -30 -64 -30 -338 0 -402 11 -24 20 -60 20 -80 0 -20 9
-56 20 -80 12 -27 20 -66 20 -100 0 -35 8 -74 20 -100 15 -34 20 -66 20 -140
0 -75 5 -107 20 -140 30 -67 30 -611 0 -678 -11 -24 -20 -51 -20 -61 0 -10
-32 -81 -70 -159 -88 -178 -75 -171 -310 -171 -168 0 -171 0 -195 -25 -44 -43
-28 -91 42 -124 50 -23 50 -23 76 3 26 26 26 26 197 26 235 0 222 -7 310 171
38 78 70 149 70 159 0 10 9 37 20 61 30 67 30 611 0 678 -15 33 -20 65 -20
140 0 74 -5 106 -20 140 -12 26 -20 65 -20 100 0 34 -8 73 -20 100 -11 24 -20
60 -20 80 0 20 -9 56 -20 80 -30 64 -30 338 0 402 14 31 20 66 20 120 0 55 6
89 20 120 11 24 20 61 20 82 0 41 19 85 45 107 9 8 27 34 40 59 64 127 252
263 454 331 162 54 446 46 641 -20 151 -50 362 -148 416 -193 16 -13 65 -42
108 -65 l80 -41 -59 59 c-39 39 -88 75 -140 102 -44 22 -93 52 -109 65 -54 45
-265 143 -416 193 -149 50 -149 50 -357 49 -208 -1 -208 -1 -298 -33z"/>
<path d="M840 2383 c0 -9 -42 -59 -94 -112 -73 -74 -103 -114 -134 -177 -22
-44 -48 -86 -57 -94 -9 -8 -27 -35 -40 -60 -13 -25 -31 -52 -40 -60 -9 -8 -27
-35 -40 -60 -13 -25 -31 -52 -40 -60 -41 -34 -45 -61 -45 -288 0 -198 2 -224
20 -263 11 -24 20 -60 20 -80 0 -20 9 -56 20 -80 11 -24 20 -61 20 -82 0 -57
43 -133 88 -156 38 -19 38 -19 31 38 -3 31 -14 71 -23 88 -9 18 -16 49 -16 70
0 21 -9 58 -20 82 -18 39 -20 65 -20 263 0 227 4 254 45 288 9 8 27 35 40 60
13 25 31 52 40 60 9 8 27 35 40 60 13 25 31 52 40 60 9 8 36 52 60 99 34 68
61 103 125 166 98 95 117 130 97 178 -16 38 -117 90 -117 60z"/>
</g><g transform="translate(0.000000,596.000000) scale(0.100000,-0.100000)"
fill="#e2bb7a" stroke="none">
<path d="M1685 5649 c-22 -10 -48 -19 -58 -19 -93 -1 -407 -251 -407 -324 0
-15 -9 -44 -20 -66 -11 -22 -20 -49 -20 -60 0 -11 -9 -38 -20 -60 -14 -26 -20
-59 -20 -100 0 -41 -6 -74 -20 -100 -29 -57 -29 -263 0 -320 11 -22 20 -58 20
-80 0 -22 9 -58 20 -80 11 -22 20 -49 20 -60 0 -11 9 -38 20 -60 16 -32 20
-59 20 -140 0 -81 4 -108 20 -140 18 -35 20 -59 20 -240 0 -181 2 -205 20
-240 15 -30 20 -59 20 -120 0 -61 -5 -90 -20 -120 -11 -22 -20 -49 -20 -60 0
-11 -9 -38 -20 -60 -11 -22 -20 -49 -20 -60 0 -11 -9 -38 -20 -60 -11 -22 -20
-48 -20 -60 0 -11 -33 -87 -74 -168 -74 -147 -74 -147 -271 -342 -124 -123
-205 -212 -220 -241 -13 -25 -31 -51 -40 -59 -9 -8 -27 -34 -40 -59 -13 -25
-40 -62 -60 -81 -23 -22 -62 -86 -106 -172 -69 -138 -69 -138 -69 -278 0 -121
3 -146 20 -180 13 -26 20 -59 20 -100 0 -51 6 -73 40 -140 22 -44 40 -91 40
-104 0 -14 13 -40 29 -58 15 -18 38 -51 49 -73 25 -48 191 -213 247 -245 22
-12 60 -40 85 -62 177 -157 357 -218 643 -219 355 -1 387 4 441 61 27 29 46
59 46 72 0 13 18 60 40 106 26 54 40 97 40 123 0 45 84 223 131 277 16 18 29
44 29 58 0 14 9 42 20 64 15 30 20 59 20 120 0 74 3 87 40 160 22 44 40 89 40
100 0 12 9 38 20 60 11 22 20 58 20 80 0 22 9 58 20 80 11 22 20 57 20 80 0
29 16 73 60 160 33 66 60 129 60 140 0 12 9 38 20 60 16 32 20 59 20 140 0 81
4 108 20 140 11 22 20 49 20 60 0 11 9 38 20 60 16 32 20 59 20 140 0 81 4
108 20 140 11 22 20 58 20 80 0 23 8 55 18 73 14 27 18 72 24 292 4 143 8 276
9 295 0 19 -2 49 -6 66 -5 22 -1 43 14 72 32 62 32 620 1 682 -17 33 -20 59
-20 159 0 97 -4 127 -20 162 -11 24 -20 61 -20 82 0 23 -14 65 -35 107 -49 97
-40 154 17 104 26 -23 118 -209 118 -238 0 -12 9 -39 20 -61 11 -22 20 -56 20
-78 0 -21 9 -55 20 -77 17 -33 20 -59 20 -160 0 -101 3 -127 20 -160 18 -35
20 -59 20 -240 0 -181 -2 -205 -20 -240 -19 -37 -20 -59 -20 -360 0 -301 -1
-323 -20 -360 -11 -22 -20 -58 -20 -80 0 -22 -9 -58 -20 -80 -17 -33 -20 -59
-20 -160 0 -101 -3 -127 -20 -160 -11 -22 -20 -49 -20 -60 0 -11 -9 -38 -20
-60 -14 -26 -20 -59 -20 -100 0 -41 -6 -74 -20 -100 -11 -22 -20 -58 -20 -80
0 -22 -9 -58 -20 -80 -11 -22 -20 -49 -20 -60 0 -11 -9 -38 -20 -60 -11 -22
-20 -49 -20 -60 0 -11 -9 -38 -20 -60 -11 -22 -20 -49 -20 -60 0 -11 -9 -38
-20 -60 -11 -22 -20 -49 -20 -60 0 -11 -9 -38 -20 -60 -11 -22 -20 -49 -20
-60 0 -11 -9 -38 -20 -60 -11 -22 -20 -58 -20 -80 0 -22 -9 -58 -20 -80 -14
-26 -20 -59 -20 -100 0 -41 -6 -74 -20 -100 -11 -22 -20 -48 -20 -60 0 -28
-96 -218 -131 -258 -16 -18 -29 -44 -29 -58 0 -32 -51 -133 -89 -177 -30 -34
-30 -34 12 -75 43 -42 43 -42 134 -42 69 0 101 5 134 20 24 11 58 20 74 20 36
0 110 68 120 111 6 26 40 49 71 49 22 0 348 166 398 203 24 17 56 40 72 50 16
9 54 34 85 55 30 20 77 51 104 67 109 68 162 130 236 277 38 76 69 147 69 158
0 12 9 38 20 60 11 22 20 58 20 80 0 22 9 58 20 80 11 22 20 49 20 60 0 11 9
38 20 60 11 22 20 49 20 60 0 11 9 38 20 60 11 22 20 49 20 60 0 11 9 38 20
60 14 26 20 59 20 100 0 41 6 74 20 100 15 30 20 59 20 120 0 61 5 90 20 120
16 32 20 59 20 140 0 81 4 108 20 140 17 33 20 59 20 160 0 101 3 127 20 160
17 34 20 59 20 180 0 121 -3 146 -20 180 -15 30 -20 59 -20 120 0 61 -5 90
-20 120 -11 22 -20 49 -20 60 0 11 -9 38 -20 60 -11 22 -20 50 -20 64 0 14
-13 40 -29 58 -37 43 -91 151 -91 182 0 14 -13 40 -29 58 -16 18 -56 87 -89
154 -33 66 -68 126 -77 134 -9 8 -27 34 -40 59 -13 25 -49 71 -80 101 -31 30
-66 73 -77 95 -26 52 -232 261 -283 287 -22 11 -87 67 -145 123 -58 57 -120
110 -138 119 -18 9 -56 38 -85 64 -89 79 -428 235 -547 252 -31 4 -70 15 -87
24 -49 25 -302 22 -358 -5z m508 -1480 c40 -33 87 -114 87 -149 0 -41 -47
-116 -83 -134 -89 -42 -117 -6 -117 151 0 166 30 201 113 132z m-570 -10 c70
-32 108 -249 52 -304 -20 -21 -34 -25 -85 -25 -99 0 -110 18 -110 170 0 158
42 205 143 159z m532 -574 c34 -33 32 -52 -15 -145 -22 -44 -40 -89 -40 -100
0 -12 -9 -38 -20 -60 -11 -22 -20 -58 -20 -80 0 -92 -150 -131 -176 -46 -4 12
-46 62 -94 111 -48 50 -96 106 -105 125 -10 19 -31 50 -46 68 -37 42 -38 81
-3 116 49 48 129 14 173 -72 11 -21 38 -55 60 -77 l41 -39 43 42 c24 24 56 69
72 102 39 81 85 101 130 55z"/>
</g><g transform="translate(0.000000,596.000000) scale(0.100000,-0.100000)"
fill="#c7a56b" stroke="none">
<path d="M2267 5453 c-14 -13 -6 -45 28 -113 21 -42 35 -84 35 -107 0 -21 9
-58 20 -82 16 -35 20 -65 20 -162 0 -100 3 -126 20 -159 31 -62 31 -620 -1
-682 -15 -29 -19 -50 -14 -72 4 -17 6 -47 6 -66 -1 -19 -5 -152 -9 -295 -6
-220 -10 -265 -24 -292 -10 -18 -18 -50 -18 -73 0 -22 -9 -58 -20 -80 -16 -32
-20 -59 -20 -140 0 -81 -4 -108 -20 -140 -11 -22 -20 -49 -20 -60 0 -11 -9
-38 -20 -60 -16 -32 -20 -59 -20 -140 0 -81 -4 -108 -20 -140 -11 -22 -20 -48
-20 -60 0 -11 -27 -74 -60 -140 -44 -87 -60 -131 -60 -160 0 -23 -9 -58 -20
-80 -11 -22 -20 -58 -20 -80 0 -22 -9 -58 -20 -80 -11 -22 -20 -48 -20 -60 0
-11 -18 -56 -40 -100 -37 -73 -40 -86 -40 -160 0 -61 -5 -90 -20 -120 -11 -22
-20 -50 -20 -64 0 -14 -13 -40 -29 -58 -47 -54 -131 -232 -131 -277 0 -26 -14
-69 -40 -123 -22 -46 -40 -93 -40 -106 0 -13 -19 -43 -46 -72 -54 -57 -86 -62
-441 -61 -236 1 -404 43 -527 133 -25 18 -61 43 -80 55 -36 22 -36 22 -17 -15
24 -46 192 -211 246 -242 22 -12 60 -40 85 -62 177 -157 357 -218 643 -219
355 -1 387 4 441 61 27 29 46 59 46 72 0 13 18 60 40 106 26 54 40 97 40 123
0 22 9 58 21 80 23 45 15 47 -53 13 -17 -9 -61 -14 -120 -14 -92 0 -92 0 -135
42 -42 41 -42 41 -12 75 38 44 89 145 89 177 0 14 13 40 29 58 35 40 131 230
131 258 0 12 9 38 20 60 14 26 20 59 20 100 0 41 6 74 20 100 11 22 20 58 20
80 0 22 9 58 20 80 11 22 20 49 20 60 0 11 9 38 20 60 11 22 20 49 20 60 0 11
9 38 20 60 11 22 20 49 20 60 0 11 9 38 20 60 11 22 20 49 20 60 0 11 9 38 20
60 11 22 20 49 20 60 0 11 9 38 20 60 11 22 20 58 20 80 0 22 9 58 20 80 14
26 20 59 20 100 0 41 6 74 20 100 11 22 20 49 20 60 0 11 9 38 20 60 17 33 20
59 20 160 0 101 3 127 20 160 11 22 20 58 20 80 0 22 9 58 20 80 19 37 20 59
20 360 0 301 1 323 20 360 18 35 20 59 20 240 0 181 -2 205 -20 240 -17 33
-20 59 -20 160 0 101 -3 127 -20 160 -11 22 -20 56 -20 77 0 22 -9 56 -20 78
-11 22 -20 49 -20 60 0 28 -85 203 -113 233 -21 22 -38 28 -50 15z"/>
<path d="M3056 5038 c34 -35 71 -81 82 -104 11 -22 28 -47 37 -54 9 -8 44 -68
77 -134 33 -67 73 -136 89 -154 16 -18 29 -44 29 -58 0 -31 54 -139 91 -182
16 -18 29 -44 29 -58 0 -14 9 -42 20 -64 11 -22 20 -49 20 -60 0 -11 9 -38 20
-60 15 -30 20 -59 20 -120 0 -61 5 -90 20 -120 17 -34 20 -59 20 -180 0 -121
-3 -146 -20 -180 -17 -33 -20 -59 -20 -160 0 -101 -3 -127 -20 -160 -16 -32
-20 -59 -20 -140 0 -81 -4 -108 -20 -140 -15 -30 -20 -59 -20 -120 0 -61 -5
-90 -20 -120 -14 -26 -20 -59 -20 -100 0 -41 -6 -74 -20 -100 -11 -22 -20 -49
-20 -60 0 -11 -9 -38 -20 -60 -11 -22 -20 -49 -20 -60 0 -11 -9 -38 -20 -60
-11 -22 -20 -49 -20 -60 0 -11 -9 -38 -20 -60 -11 -22 -20 -58 -20 -80 0 -22
-9 -58 -20 -80 -11 -22 -20 -48 -20 -60 0 -11 -31 -82 -69 -158 -74 -147 -127
-209 -236 -277 -27 -16 -74 -47 -104 -67 -31 -21 -69 -46 -85 -55 -16 -10 -48
-33 -72 -50 -24 -18 -115 -68 -202 -112 -157 -79 -157 -79 -197 -162 -22 -45
-55 -100 -72 -122 -18 -21 -33 -50 -33 -63 0 -32 -52 -134 -89 -177 -30 -34
-30 -34 12 -75 43 -42 43 -42 134 -42 69 0 101 5 134 20 24 11 58 20 74 20 36
0 110 68 120 111 6 26 40 49 71 49 22 0 348 166 398 203 24 17 56 40 72 50 16
9 54 34 85 55 30 20 77 51 104 67 109 68 162 130 236 277 38 76 69 147 69 158
0 12 9 38 20 60 11 22 20 58 20 80 0 22 9 58 20 80 11 22 20 49 20 60 0 11 9
38 20 60 11 22 20 49 20 60 0 11 9 38 20 60 11 22 20 49 20 60 0 11 9 38 20
60 14 26 20 59 20 100 0 41 6 74 20 100 15 30 20 59 20 120 0 61 5 90 20 120
16 32 20 59 20 140 0 81 4 108 20 140 17 33 20 59 20 160 0 101 3 127 20 160
17 34 20 59 20 180 0 121 -3 146 -20 180 -15 30 -20 59 -20 120 0 61 -5 90
-20 120 -11 22 -20 49 -20 60 0 11 -9 38 -20 60 -11 22 -20 50 -20 64 0 14
-13 40 -29 58 -37 43 -91 151 -91 182 0 14 -13 40 -29 58 -16 18 -56 87 -89
154 -33 66 -68 126 -77 134 -9 8 -27 34 -40 59 -13 25 -49 71 -80 101 -31 30
-67 75 -80 100 -28 53 -232 257 -290 289 -39 22 -38 21 21 -41z"/>
<path d="M1746 4528 c-29 -41 -22 -252 9 -283 44 -45 112 -20 151 56 30 60 30
78 -1 138 -46 91 -126 136 -159 89z"/>
<path d="M1160 4502 c-22 -18 -22 -18 -1 -60 11 -23 21 -51 21 -62 0 -11 9
-38 20 -60 12 -24 20 -59 20 -90 0 -50 0 -50 40 -50 69 0 90 31 90 129 0 162
-101 265 -190 193z"/>
<path d="M1723 3948 c-16 -8 -23 -20 -23 -40 0 -22 -16 -46 -70 -101 l-69 -72
-41 40 c-23 22 -50 56 -61 77 -44 86 -124 120 -173 72 -35 -35 -34 -74 3 -116
15 -18 36 -49 46 -68 9 -19 57 -75 105 -125 48 -49 90 -99 94 -111 7 -22 44
-44 77 -44 16 0 18 3 9 19 -26 50 14 121 70 121 28 0 60 48 60 91 0 10 18 55
40 99 47 93 49 112 15 145 -26 27 -47 30 -82 13z"/>
</g><g transform="translate(0.000000,596.000000) scale(0.100000,-0.100000)"
fill="#eed6af" stroke="none">
<path d="M1855 5479 c-22 -10 -48 -19 -58 -19 -93 -1 -407 -251 -407 -324 0
-15 -9 -44 -20 -66 -11 -22 -20 -49 -20 -60 0 -11 -9 -38 -20 -60 -14 -26 -20
-59 -20 -100 0 -41 -6 -74 -20 -100 -25 -49 -30 -233 -6 -247 39 -23 66 -110
66 -213 0 -81 4 -108 20 -140 16 -30 20 -59 20 -128 0 -82 2 -90 26 -113 14
-13 34 -41 45 -61 28 -54 43 -59 35 -12 -4 22 -11 80 -16 129 -9 106 -21 158
-43 202 -9 18 -17 50 -17 73 0 22 -9 58 -20 80 -17 33 -20 59 -20 160 0 101 3
127 20 160 14 26 20 59 20 100 0 41 6 74 20 100 11 22 20 49 20 60 0 11 9 38
20 60 11 22 20 51 20 66 0 53 181 221 297 275 164 77 184 82 333 86 135 4 135
4 134 39 -1 32 -6 38 -44 55 -61 28 -306 27 -365 -2z"/>
<path d="M2316 5439 c12 -13 29 -38 38 -56 13 -27 22 -32 63 -36 103 -10 453
-171 540 -249 83 -75 133 -95 68 -28 -27 28 -67 60 -88 71 -21 11 -61 41 -90
67 -75 67 -418 231 -522 249 -30 6 -30 6 -9 -18z"/>
<path d="M2900 4821 c0 -5 11 -33 25 -63 14 -29 25 -62 25 -73 0 -12 9 -38 20
-60 11 -22 20 -56 20 -78 0 -21 9 -55 20 -77 17 -33 20 -59 20 -160 0 -101 3
-127 20 -160 28 -55 30 -421 3 -473 -15 -28 -17 -76 -21 -362 -3 -255 -7 -336
-18 -357 -8 -15 -14 -48 -14 -73 0 -26 -9 -63 -20 -85 -15 -29 -21 -68 -26
-167 -4 -75 -12 -139 -20 -155 -8 -15 -14 -39 -14 -53 0 -14 -9 -43 -20 -64
-10 -21 -22 -70 -26 -107 -4 -38 -13 -81 -20 -96 -8 -15 -14 -57 -14 -93 0
-46 -6 -78 -20 -105 -11 -22 -20 -48 -20 -59 0 -12 -20 -62 -44 -113 -50 -107
-65 -147 -75 -203 -4 -22 -15 -54 -24 -72 -9 -18 -17 -50 -17 -73 0 -22 -9
-58 -20 -80 -11 -22 -20 -49 -20 -60 0 -12 -7 -34 -15 -50 -18 -34 -12 -36 30
-12 66 38 125 87 125 104 0 10 9 36 20 58 11 22 20 49 20 60 0 11 9 38 20 60
11 22 20 49 20 60 0 11 9 38 20 60 11 22 20 49 20 60 0 11 9 38 20 60 11 22
20 49 20 60 0 11 9 38 20 60 11 22 20 58 20 80 0 22 9 58 20 80 14 26 20 59
20 100 0 41 6 74 20 100 11 22 20 49 20 60 0 11 9 38 20 60 17 33 20 59 20
160 0 101 3 127 20 160 11 22 20 58 20 80 0 22 9 58 20 80 19 37 20 59 20 360
0 301 1 323 20 360 18 35 20 59 20 240 0 181 -2 205 -20 240 -17 33 -20 59
-20 160 0 101 -3 127 -20 160 -11 22 -20 56 -20 77 0 22 -9 56 -20 78 -11 22
-20 49 -20 60 0 28 -85 203 -113 233 -21 22 -47 30 -47 13z"/>
<path d="M1868 3800 c4 -103 -17 -140 -78 -140 -27 0 -30 -3 -30 -30 0 -53 38
-80 110 -80 51 0 65 4 85 25 56 55 18 272 -52 304 -38 17 -38 16 -35 -79z"/>
<path d="M2511 3740 c0 -115 0 -115 24 -70 13 25 24 56 24 70 0 14 -11 45 -24
70 -24 45 -24 45 -24 -70z"/>
<path d="M1430 3527 c0 -78 4 -106 20 -137 15 -30 20 -59 20 -120 0 -61 -5
-90 -20 -120 -11 -22 -20 -49 -20 -60 0 -11 -9 -38 -20 -60 -11 -22 -20 -49
-20 -60 0 -11 -9 -38 -20 -60 -11 -22 -20 -48 -20 -60 0 -11 -33 -87 -74 -168
-74 -147 -74 -147 -271 -342 -124 -123 -205 -212 -220 -241 -13 -25 -31 -51
-40 -59 -9 -8 -27 -34 -40 -59 -13 -25 -40 -62 -60 -81 -23 -22 -62 -86 -106
-172 -69 -138 -69 -138 -69 -278 0 -121 3 -146 20 -180 13 -26 20 -60 21 -102
1 -81 74 -239 129 -275 45 -31 46 -25 11 46 -25 48 -31 73 -31 121 0 41 -7 74
-20 100 -17 34 -20 59 -20 180 0 140 0 140 69 278 44 86 83 150 106 172 20 19
47 56 60 81 13 25 31 51 40 59 9 8 27 34 40 59 15 29 96 118 220 241 197 195
197 195 271 342 41 81 74 157 74 168 0 12 9 38 20 60 11 22 20 49 20 60 0 11
9 38 20 60 11 22 20 49 20 60 0 11 9 38 20 60 15 30 20 59 20 120 0 61 -5 90
-20 120 -15 30 -20 59 -20 125 0 98 -9 121 -69 180 l-41 39 0 -97z"/>
<path d="M2436 3285 c-3 -9 -6 -35 -6 -58 1 -41 1 -42 15 -17 16 28 19 59 6
78 -7 11 -10 10 -15 -3z"/>
<path d="M2277 3185 c-4 -16 -17 -49 -28 -73 -10 -23 -19 -61 -19 -83 0 -50
-35 -89 -79 -89 -30 0 -30 0 -6 -37 34 -53 44 -63 59 -63 14 0 46 62 46 91 0
11 9 38 20 60 17 33 20 55 18 132 -2 69 -5 84 -11 62z"/>
</g><g transform="translate(0.000000,596.000000) scale(0.100000,-0.100000)"
fill="#2b211c" stroke="none">
<path d="M1611 5790 c-24 -11 -51 -20 -60 -20 -93 0 -368 -207 -426 -321 -13
-25 -31 -51 -40 -59 -27 -22 -45 -66 -45 -110 0 -22 -9 -58 -20 -80 -15 -30
-20 -59 -20 -120 0 -61 -5 -90 -20 -120 -30 -59 -30 -341 0 -400 11 -22 20
-58 20 -80 0 -22 9 -58 20 -80 14 -26 20 -59 20 -100 0 -41 6 -74 20 -100 16
-32 20 -59 20 -140 0 -81 4 -108 20 -140 31 -60 31 -620 0 -680 -11 -22 -20
-48 -20 -60 0 -31 -136 -296 -162 -314 -18 -13 -55 -16 -206 -16 -181 0 -183
0 -207 -25 -59 -58 -14 -112 130 -157 78 -25 66 -60 -63 -191 -89 -91 -118
-127 -150 -193 -22 -44 -48 -86 -57 -94 -9 -8 -27 -35 -40 -60 -13 -25 -31
-52 -40 -60 -9 -8 -27 -35 -40 -60 -13 -25 -31 -52 -40 -60 -41 -34 -45 -61
-45 -290 0 -201 2 -224 20 -260 11 -22 20 -58 20 -80 0 -22 9 -58 20 -80 11
-22 20 -57 20 -80 0 -43 54 -165 85 -190 9 -8 27 -35 40 -60 13 -25 31 -52 40
-60 9 -8 27 -35 40 -61 25 -49 66 -89 119 -116 17 -8 52 -35 77 -58 25 -24 61
-51 80 -60 19 -10 55 -37 81 -62 47 -43 234 -143 269 -143 9 0 36 -9 60 -20
38 -17 66 -20 219 -20 156 0 180 -2 227 -22 53 -22 53 -22 106 0 41 17 73 22
147 22 73 0 105 5 139 20 96 44 151 5 151 -107 0 -124 68 -178 147 -117 68 52
94 141 58 204 -35 61 -4 111 74 124 44 7 121 70 121 99 0 39 -79 48 -149 17
-49 -22 -255 -29 -292 -10 -30 16 -25 66 11 107 39 43 90 145 90 177 0 14 13
40 29 58 35 40 131 230 131 258 0 12 9 38 20 60 14 26 20 59 20 100 0 41 6 74
20 100 11 22 20 58 20 80 0 22 9 58 20 80 11 22 20 49 20 60 0 11 9 38 20 60
11 22 20 49 20 60 0 11 9 38 20 60 11 22 20 49 20 60 0 11 9 38 20 60 11 22
20 49 20 60 0 11 9 38 20 60 11 22 20 49 20 60 0 11 9 38 20 60 11 22 20 58
20 80 0 22 9 58 20 80 14 26 20 59 20 100 0 41 6 74 20 100 11 22 20 49 20 60
0 11 9 38 20 60 17 33 20 59 20 160 0 101 3 127 20 160 11 22 20 58 20 80 0
22 9 58 20 80 19 37 20 59 20 360 0 301 1 323 20 360 30 59 30 421 0 480 -17
33 -20 59 -20 160 0 101 -3 127 -20 160 -11 22 -20 56 -20 77 0 22 -9 56 -20
78 -11 22 -20 49 -20 61 0 29 -92 215 -118 238 -57 50 -66 -7 -17 -104 21 -42
35 -84 35 -107 0 -21 9 -58 20 -82 16 -35 20 -65 20 -162 0 -100 3 -126 20
-159 31 -62 31 -620 -1 -682 -15 -29 -19 -50 -14 -72 4 -17 6 -47 6 -66 -1
-19 -5 -152 -9 -295 -6 -220 -10 -265 -24 -292 -10 -18 -18 -50 -18 -73 0 -22
-9 -58 -20 -80 -16 -32 -20 -59 -20 -140 0 -81 -4 -108 -20 -140 -11 -22 -20
-49 -20 -60 0 -11 -9 -38 -20 -60 -16 -32 -20 -59 -20 -140 0 -81 -4 -108 -20
-140 -11 -22 -20 -48 -20 -60 0 -11 -27 -74 -60 -140 -44 -87 -60 -131 -60
-160 0 -23 -9 -58 -20 -80 -11 -22 -20 -58 -20 -80 0 -22 -9 -58 -20 -80 -11
-22 -20 -48 -20 -60 0 -11 -18 -56 -40 -100 -37 -73 -40 -86 -40 -160 0 -61
-5 -90 -20 -120 -11 -22 -20 -50 -20 -64 0 -14 -13 -40 -29 -58 -47 -54 -131
-232 -131 -277 0 -26 -14 -69 -40 -123 -22 -46 -40 -91 -40 -101 0 -34 -49
-116 -73 -122 -23 -5 -196 -15 -259 -16 -43 0 -101 0 -155 0 -286 1 -466 62
-643 219 -25 22 -63 50 -85 62 -56 32 -222 197 -247 245 -11 22 -34 55 -49 73
-16 18 -29 44 -29 58 0 13 -18 60 -40 104 -34 67 -40 89 -40 140 0 41 -7 74
-20 100 -17 34 -20 59 -20 180 0 140 0 140 69 278 44 86 83 150 106 172 20 19
47 56 60 81 13 25 31 51 40 59 9 8 27 34 40 59 15 29 96 118 220 241 197 195
197 195 271 342 41 81 74 157 74 168 0 12 9 38 20 60 11 22 20 49 20 60 0 11
9 38 20 60 11 22 20 49 20 60 0 11 9 38 20 60 28 55 28 185 0 240 -18 35 -20
59 -20 240 0 181 -2 205 -20 240 -16 32 -20 59 -20 140 0 81 -4 108 -20 140
-11 22 -20 49 -20 60 0 11 -9 38 -20 60 -11 22 -20 58 -20 80 0 22 -9 58 -20
80 -17 33 -20 59 -20 160 0 101 3 127 20 160 14 26 20 59 20 100 0 41 6 74 20
100 11 22 20 49 20 60 0 11 9 38 20 60 11 22 20 51 20 66 0 21 23 51 100 128
103 105 177 150 345 212 73 26 330 32 377 8 18 -9 57 -20 88 -24 119 -17 458
-173 547 -252 29 -26 67 -55 85 -64 18 -9 80 -62 138 -119 58 -56 123 -112
145 -123 51 -26 257 -235 283 -287 11 -22 46 -65 77 -95 31 -30 67 -76 80
-101 13 -25 31 -51 40 -59 9 -8 44 -68 77 -134 33 -67 73 -136 89 -154 16 -18
29 -44 29 -58 0 -31 54 -139 91 -182 16 -18 29 -44 29 -58 0 -14 9 -42 20 -64
11 -22 20 -49 20 -60 0 -11 9 -38 20 -60 15 -30 20 -59 20 -120 0 -61 5 -90
20 -120 17 -34 20 -59 20 -180 0 -121 -3 -146 -20 -180 -17 -33 -20 -59 -20
-160 0 -101 -3 -127 -20 -160 -16 -32 -20 -59 -20 -140 0 -81 -4 -108 -20
-140 -15 -30 -20 -59 -20 -120 0 -61 -5 -90 -20 -120 -14 -26 -20 -59 -20
-100 0 -41 -6 -74 -20 -100 -11 -22 -20 -49 -20 -60 0 -11 -9 -38 -20 -60 -11
-22 -20 -49 -20 -60 0 -11 -9 -38 -20 -60 -11 -22 -20 -49 -20 -60 0 -11 -9
-38 -20 -60 -11 -22 -20 -58 -20 -80 0 -22 -9 -58 -20 -80 -11 -22 -20 -48
-20 -60 0 -11 -31 -82 -69 -158 -74 -147 -127 -209 -236 -277 -27 -16 -74 -47
-104 -67 -31 -21 -69 -46 -85 -55 -16 -10 -48 -33 -72 -50 -50 -37 -376 -203
-398 -203 -65 0 -92 -60 -57 -128 16 -32 21 -60 21 -121 0 -159 64 -234 163
-193 29 12 69 22 90 22 69 0 87 31 86 147 -1 118 -4 128 -54 156 -84 47 -49
90 160 194 83 41 168 88 190 105 43 31 110 76 184 121 96 59 127 101 227 299
72 145 94 197 94 228 0 23 9 58 20 80 11 22 20 57 20 80 0 27 13 66 40 120 27
54 40 93 40 120 0 23 9 58 20 80 11 22 20 49 20 60 0 11 9 38 20 60 14 26 20
59 20 100 0 41 6 74 20 100 17 33 20 59 20 160 0 156 28 207 73 131 30 -51 73
-63 211 -59 117 3 124 4 160 32 98 74 100 162 4 215 -23 14 -60 38 -81 55 -48
38 -134 47 -202 21 -79 -30 -120 -6 -97 58 7 19 12 84 12 151 0 97 3 123 20
156 25 50 25 110 0 160 -17 33 -20 59 -20 160 0 101 -3 127 -20 160 -11 22
-20 48 -20 60 0 11 -36 92 -80 180 -44 88 -80 169 -80 180 0 26 -63 152 -85
170 -9 8 -45 71 -80 140 -35 69 -71 132 -80 140 -9 8 -27 34 -40 59 -13 26
-74 96 -140 161 -65 65 -127 135 -140 160 -26 51 -105 129 -156 155 -19 9 -99
81 -179 160 -120 118 -158 149 -220 180 -41 21 -88 49 -104 62 -38 31 -273
150 -323 162 -43 11 -115 35 -185 63 -72 28 -453 27 -517 -2z"/>
<path d="M2096 4178 c-29 -41 -22 -252 9 -283 44 -45 112 -20 151 56 30 60 30
78 -1 138 -46 91 -126 136 -159 89z"/>
<path d="M1505 4145 c-24 -23 -25 -30 -25 -145 0 -152 11 -170 110 -170 51 0
65 4 85 25 56 55 18 272 -52 304 -42 19 -92 13 -118 -14z"/>
<path d="M2074 3599 c-11 -6 -43 -55 -72 -115 -43 -87 -56 -104 -75 -104 -28
0 -87 59 -116 117 -45 91 -125 126 -175 77 -35 -35 -34 -74 3 -116 15 -18 36
-49 46 -68 9 -19 57 -75 105 -125 48 -49 90 -99 94 -111 26 -85 176 -46 176
46 0 22 9 58 20 80 11 22 20 48 20 60 0 11 18 56 40 100 47 93 49 112 15 145
-26 26 -47 30 -81 14z"/>
</g></svg>
